<mxfile host="app.diagrams.net" agent="Mozilla/5.0 (Windows NT 10.0; Win64; x64) AppleWebKit/537.36 (KHTML, like Gecko) Chrome/128.0.0.0 Safari/537.36 Edg/128.0.0.0" version="24.7.10">
  <diagram id="R2lEEEUBdFMjLlhIrx00" name="Page-1">
    <mxGraphModel dx="1846" dy="1682" grid="1" gridSize="10" guides="1" tooltips="1" connect="1" arrows="1" fold="1" page="1" pageScale="1" pageWidth="850" pageHeight="1100" math="0" shadow="0" extFonts="Permanent Marker^https://fonts.googleapis.com/css?family=Permanent+Marker">
      <root>
        <mxCell id="0" />
        <mxCell id="1" parent="0" />
        <mxCell id="VtcHBGdytWpLw2sPs4VE-27" style="edgeStyle=orthogonalEdgeStyle;rounded=0;orthogonalLoop=1;jettySize=auto;html=1;exitX=1;exitY=0.5;exitDx=0;exitDy=0;entryX=0;entryY=0.5;entryDx=0;entryDy=0;" edge="1" parent="1" source="VtcHBGdytWpLw2sPs4VE-1" target="VtcHBGdytWpLw2sPs4VE-10">
          <mxGeometry relative="1" as="geometry" />
        </mxCell>
        <mxCell id="VtcHBGdytWpLw2sPs4VE-1" value="Dealership" style="whiteSpace=wrap;html=1;align=center;" vertex="1" parent="1">
          <mxGeometry x="80" y="400" width="100" height="40" as="geometry" />
        </mxCell>
        <mxCell id="VtcHBGdytWpLw2sPs4VE-25" style="edgeStyle=orthogonalEdgeStyle;rounded=0;orthogonalLoop=1;jettySize=auto;html=1;exitX=0.5;exitY=1;exitDx=0;exitDy=0;entryX=1;entryY=0.5;entryDx=0;entryDy=0;startArrow=ERzeroToOne;startFill=0;" edge="1" parent="1" source="VtcHBGdytWpLw2sPs4VE-14" target="VtcHBGdytWpLw2sPs4VE-2">
          <mxGeometry relative="1" as="geometry" />
        </mxCell>
        <mxCell id="VtcHBGdytWpLw2sPs4VE-2" value="Customer" style="whiteSpace=wrap;html=1;align=center;" vertex="1" parent="1">
          <mxGeometry x="740" y="400" width="100" height="40" as="geometry" />
        </mxCell>
        <mxCell id="VtcHBGdytWpLw2sPs4VE-19" style="edgeStyle=orthogonalEdgeStyle;rounded=0;orthogonalLoop=1;jettySize=auto;html=1;exitX=1;exitY=0.5;exitDx=0;exitDy=0;startArrow=ERone;startFill=0;" edge="1" parent="1" source="VtcHBGdytWpLw2sPs4VE-3" target="VtcHBGdytWpLw2sPs4VE-12">
          <mxGeometry relative="1" as="geometry" />
        </mxCell>
        <mxCell id="VtcHBGdytWpLw2sPs4VE-21" style="edgeStyle=orthogonalEdgeStyle;rounded=0;orthogonalLoop=1;jettySize=auto;html=1;exitX=0.882;exitY=1.015;exitDx=0;exitDy=0;entryX=0;entryY=0.5;entryDx=0;entryDy=0;startArrow=ERone;startFill=0;exitPerimeter=0;" edge="1" parent="1" source="VtcHBGdytWpLw2sPs4VE-3" target="VtcHBGdytWpLw2sPs4VE-13">
          <mxGeometry relative="1" as="geometry" />
        </mxCell>
        <mxCell id="VtcHBGdytWpLw2sPs4VE-32" style="rounded=0;orthogonalLoop=1;jettySize=auto;html=1;exitX=0;exitY=0.5;exitDx=0;exitDy=0;entryX=1;entryY=0.5;entryDx=0;entryDy=0;" edge="1" parent="1" source="VtcHBGdytWpLw2sPs4VE-3" target="VtcHBGdytWpLw2sPs4VE-15">
          <mxGeometry relative="1" as="geometry" />
        </mxCell>
        <mxCell id="VtcHBGdytWpLw2sPs4VE-33" style="edgeStyle=orthogonalEdgeStyle;rounded=0;orthogonalLoop=1;jettySize=auto;html=1;exitX=0;exitY=0.25;exitDx=0;exitDy=0;entryX=0;entryY=0.5;entryDx=0;entryDy=0;startArrow=ERone;startFill=0;" edge="1" parent="1" source="VtcHBGdytWpLw2sPs4VE-3" target="VtcHBGdytWpLw2sPs4VE-11">
          <mxGeometry relative="1" as="geometry">
            <Array as="points">
              <mxPoint x="340" y="90" />
              <mxPoint x="340" y="-80" />
            </Array>
          </mxGeometry>
        </mxCell>
        <mxCell id="VtcHBGdytWpLw2sPs4VE-3" value="Employee" style="whiteSpace=wrap;html=1;align=center;" vertex="1" parent="1">
          <mxGeometry x="370" y="80" width="100" height="40" as="geometry" />
        </mxCell>
        <mxCell id="VtcHBGdytWpLw2sPs4VE-4" value="Car" style="whiteSpace=wrap;html=1;align=center;" vertex="1" parent="1">
          <mxGeometry x="740" y="80" width="100" height="40" as="geometry" />
        </mxCell>
        <mxCell id="VtcHBGdytWpLw2sPs4VE-5" value="Sales_Record" style="whiteSpace=wrap;html=1;align=center;" vertex="1" parent="1">
          <mxGeometry x="30" y="-80" width="100" height="40" as="geometry" />
        </mxCell>
        <mxCell id="VtcHBGdytWpLw2sPs4VE-29" style="edgeStyle=orthogonalEdgeStyle;rounded=0;orthogonalLoop=1;jettySize=auto;html=1;exitX=0.5;exitY=0;exitDx=0;exitDy=0;entryX=0.5;entryY=1;entryDx=0;entryDy=0;endArrow=ERoneToMany;endFill=0;shape=link;" edge="1" parent="1" source="VtcHBGdytWpLw2sPs4VE-10" target="VtcHBGdytWpLw2sPs4VE-3">
          <mxGeometry relative="1" as="geometry">
            <Array as="points">
              <mxPoint x="460" y="350" />
              <mxPoint x="420" y="350" />
            </Array>
          </mxGeometry>
        </mxCell>
        <mxCell id="VtcHBGdytWpLw2sPs4VE-30" value="N" style="edgeLabel;html=1;align=center;verticalAlign=middle;resizable=0;points=[];" vertex="1" connectable="0" parent="VtcHBGdytWpLw2sPs4VE-29">
          <mxGeometry x="0.231" y="1" relative="1" as="geometry">
            <mxPoint x="76" y="121" as="offset" />
          </mxGeometry>
        </mxCell>
        <mxCell id="VtcHBGdytWpLw2sPs4VE-10" value="has" style="shape=rhombus;perimeter=rhombusPerimeter;whiteSpace=wrap;html=1;align=center;" vertex="1" parent="1">
          <mxGeometry x="400" y="390" width="120" height="60" as="geometry" />
        </mxCell>
        <mxCell id="VtcHBGdytWpLw2sPs4VE-34" style="edgeStyle=orthogonalEdgeStyle;rounded=0;orthogonalLoop=1;jettySize=auto;html=1;exitX=1;exitY=0.5;exitDx=0;exitDy=0;entryX=1;entryY=0.25;entryDx=0;entryDy=0;endArrow=ERmany;endFill=0;" edge="1" parent="1" source="VtcHBGdytWpLw2sPs4VE-11" target="VtcHBGdytWpLw2sPs4VE-3">
          <mxGeometry relative="1" as="geometry" />
        </mxCell>
        <mxCell id="VtcHBGdytWpLw2sPs4VE-11" value="supervises" style="shape=rhombus;perimeter=rhombusPerimeter;whiteSpace=wrap;html=1;align=center;" vertex="1" parent="1">
          <mxGeometry x="360" y="-110" width="120" height="60" as="geometry" />
        </mxCell>
        <mxCell id="VtcHBGdytWpLw2sPs4VE-12" value="sells" style="shape=rhombus;perimeter=rhombusPerimeter;whiteSpace=wrap;html=1;align=center;" vertex="1" parent="1">
          <mxGeometry x="560" y="70" width="120" height="60" as="geometry" />
        </mxCell>
        <mxCell id="VtcHBGdytWpLw2sPs4VE-13" value="services" style="shape=rhombus;perimeter=rhombusPerimeter;whiteSpace=wrap;html=1;align=center;" vertex="1" parent="1">
          <mxGeometry x="560" y="210" width="120" height="60" as="geometry" />
        </mxCell>
        <mxCell id="VtcHBGdytWpLw2sPs4VE-26" style="edgeStyle=orthogonalEdgeStyle;rounded=0;orthogonalLoop=1;jettySize=auto;html=1;exitX=0.5;exitY=0;exitDx=0;exitDy=0;entryX=1;entryY=0.5;entryDx=0;entryDy=0;endArrow=ERzeroToMany;endFill=0;" edge="1" parent="1" source="VtcHBGdytWpLw2sPs4VE-14" target="VtcHBGdytWpLw2sPs4VE-4">
          <mxGeometry relative="1" as="geometry" />
        </mxCell>
        <mxCell id="VtcHBGdytWpLw2sPs4VE-14" value="owned by" style="shape=rhombus;perimeter=rhombusPerimeter;whiteSpace=wrap;html=1;align=center;" vertex="1" parent="1">
          <mxGeometry x="920" y="210" width="120" height="60" as="geometry" />
        </mxCell>
        <mxCell id="VtcHBGdytWpLw2sPs4VE-35" style="edgeStyle=orthogonalEdgeStyle;rounded=0;orthogonalLoop=1;jettySize=auto;html=1;exitX=0.5;exitY=0;exitDx=0;exitDy=0;shape=link;endWidth=11;" edge="1" parent="1" source="VtcHBGdytWpLw2sPs4VE-15">
          <mxGeometry relative="1" as="geometry">
            <mxPoint x="80" y="-40" as="targetPoint" />
          </mxGeometry>
        </mxCell>
        <mxCell id="VtcHBGdytWpLw2sPs4VE-36" style="edgeStyle=orthogonalEdgeStyle;rounded=0;orthogonalLoop=1;jettySize=auto;html=1;exitX=0;exitY=0.5;exitDx=0;exitDy=0;shape=link;endWidth=18;" edge="1" parent="1" source="VtcHBGdytWpLw2sPs4VE-15" target="VtcHBGdytWpLw2sPs4VE-16">
          <mxGeometry relative="1" as="geometry" />
        </mxCell>
        <mxCell id="VtcHBGdytWpLw2sPs4VE-15" value="writes" style="shape=rhombus;perimeter=rhombusPerimeter;whiteSpace=wrap;html=1;align=center;" vertex="1" parent="1">
          <mxGeometry x="20" y="70" width="120" height="60" as="geometry" />
        </mxCell>
        <mxCell id="VtcHBGdytWpLw2sPs4VE-16" value="Service_Record" style="whiteSpace=wrap;html=1;align=center;" vertex="1" parent="1">
          <mxGeometry x="-250" y="80" width="100" height="40" as="geometry" />
        </mxCell>
        <mxCell id="VtcHBGdytWpLw2sPs4VE-23" value="" style="fontSize=12;html=1;endArrow=ERzeroToMany;endFill=1;rounded=0;entryX=0;entryY=0.5;entryDx=0;entryDy=0;" edge="1" parent="1">
          <mxGeometry width="100" height="100" relative="1" as="geometry">
            <mxPoint x="680" y="99.5" as="sourcePoint" />
            <mxPoint x="740" y="99.5" as="targetPoint" />
          </mxGeometry>
        </mxCell>
        <mxCell id="VtcHBGdytWpLw2sPs4VE-24" value="" style="fontSize=12;html=1;endArrow=ERzeroToMany;endFill=1;rounded=0;entryX=0.5;entryY=1;entryDx=0;entryDy=0;exitX=1;exitY=0.5;exitDx=0;exitDy=0;" edge="1" parent="1" source="VtcHBGdytWpLw2sPs4VE-13" target="VtcHBGdytWpLw2sPs4VE-4">
          <mxGeometry width="100" height="100" relative="1" as="geometry">
            <mxPoint x="690" y="340" as="sourcePoint" />
            <mxPoint x="750" y="340" as="targetPoint" />
            <Array as="points">
              <mxPoint x="790" y="240" />
            </Array>
          </mxGeometry>
        </mxCell>
        <mxCell id="VtcHBGdytWpLw2sPs4VE-31" value="1" style="text;html=1;align=center;verticalAlign=middle;resizable=0;points=[];autosize=1;strokeColor=none;fillColor=none;" vertex="1" parent="1">
          <mxGeometry x="360" y="390" width="30" height="30" as="geometry" />
        </mxCell>
        <mxCell id="VtcHBGdytWpLw2sPs4VE-41" style="edgeStyle=orthogonalEdgeStyle;rounded=0;orthogonalLoop=1;jettySize=auto;html=1;exitX=1;exitY=0.5;exitDx=0;exitDy=0;entryX=0;entryY=0.5;entryDx=0;entryDy=0;endArrow=none;endFill=0;" edge="1" parent="1" source="VtcHBGdytWpLw2sPs4VE-37" target="VtcHBGdytWpLw2sPs4VE-1">
          <mxGeometry relative="1" as="geometry" />
        </mxCell>
        <mxCell id="VtcHBGdytWpLw2sPs4VE-37" value="Owner_Name" style="ellipse;whiteSpace=wrap;html=1;align=center;" vertex="1" parent="1">
          <mxGeometry x="-190" y="400" width="100" height="40" as="geometry" />
        </mxCell>
        <mxCell id="VtcHBGdytWpLw2sPs4VE-42" style="edgeStyle=orthogonalEdgeStyle;rounded=0;orthogonalLoop=1;jettySize=auto;html=1;exitX=1;exitY=0.5;exitDx=0;exitDy=0;entryX=0.5;entryY=0;entryDx=0;entryDy=0;endArrow=none;endFill=0;" edge="1" parent="1" source="VtcHBGdytWpLw2sPs4VE-38" target="VtcHBGdytWpLw2sPs4VE-1">
          <mxGeometry relative="1" as="geometry" />
        </mxCell>
        <mxCell id="VtcHBGdytWpLw2sPs4VE-38" value="Dealrship_ID" style="ellipse;whiteSpace=wrap;html=1;align=center;fontStyle=4;" vertex="1" parent="1">
          <mxGeometry x="-80" y="330" width="100" height="40" as="geometry" />
        </mxCell>
        <mxCell id="VtcHBGdytWpLw2sPs4VE-43" style="edgeStyle=orthogonalEdgeStyle;rounded=0;orthogonalLoop=1;jettySize=auto;html=1;exitX=1;exitY=0.5;exitDx=0;exitDy=0;entryX=0.5;entryY=1;entryDx=0;entryDy=0;endArrow=none;endFill=0;" edge="1" parent="1" source="VtcHBGdytWpLw2sPs4VE-40" target="VtcHBGdytWpLw2sPs4VE-1">
          <mxGeometry relative="1" as="geometry" />
        </mxCell>
        <mxCell id="VtcHBGdytWpLw2sPs4VE-40" value="Address" style="ellipse;whiteSpace=wrap;html=1;align=center;" vertex="1" parent="1">
          <mxGeometry x="-80" y="480" width="100" height="40" as="geometry" />
        </mxCell>
        <mxCell id="VtcHBGdytWpLw2sPs4VE-49" style="edgeStyle=orthogonalEdgeStyle;rounded=0;orthogonalLoop=1;jettySize=auto;html=1;exitX=1;exitY=0.5;exitDx=0;exitDy=0;entryX=0;entryY=1;entryDx=0;entryDy=0;endArrow=none;endFill=0;" edge="1" parent="1" source="VtcHBGdytWpLw2sPs4VE-44" target="VtcHBGdytWpLw2sPs4VE-3">
          <mxGeometry relative="1" as="geometry">
            <Array as="points">
              <mxPoint x="330" y="220" />
              <mxPoint x="330" y="120" />
            </Array>
          </mxGeometry>
        </mxCell>
        <mxCell id="VtcHBGdytWpLw2sPs4VE-44" value="Emp_name" style="ellipse;whiteSpace=wrap;html=1;align=center;" vertex="1" parent="1">
          <mxGeometry x="160" y="200" width="100" height="40" as="geometry" />
        </mxCell>
        <mxCell id="VtcHBGdytWpLw2sPs4VE-48" style="edgeStyle=orthogonalEdgeStyle;rounded=0;orthogonalLoop=1;jettySize=auto;html=1;exitX=1;exitY=0.5;exitDx=0;exitDy=0;entryX=0;entryY=0.75;entryDx=0;entryDy=0;endArrow=none;endFill=0;" edge="1" parent="1" source="VtcHBGdytWpLw2sPs4VE-45" target="VtcHBGdytWpLw2sPs4VE-3">
          <mxGeometry relative="1" as="geometry" />
        </mxCell>
        <mxCell id="VtcHBGdytWpLw2sPs4VE-45" value="Emp_ID" style="ellipse;whiteSpace=wrap;html=1;align=center;fontStyle=4;" vertex="1" parent="1">
          <mxGeometry x="160" y="140" width="100" height="40" as="geometry" />
        </mxCell>
        <mxCell id="VtcHBGdytWpLw2sPs4VE-46" value="Sex" style="ellipse;whiteSpace=wrap;html=1;align=center;" vertex="1" parent="1">
          <mxGeometry x="160" y="270" width="100" height="40" as="geometry" />
        </mxCell>
        <mxCell id="VtcHBGdytWpLw2sPs4VE-47" value="DOB" style="ellipse;whiteSpace=wrap;html=1;align=center;" vertex="1" parent="1">
          <mxGeometry x="280" y="320" width="100" height="40" as="geometry" />
        </mxCell>
        <mxCell id="VtcHBGdytWpLw2sPs4VE-50" style="edgeStyle=orthogonalEdgeStyle;rounded=0;orthogonalLoop=1;jettySize=auto;html=1;exitX=1;exitY=0.5;exitDx=0;exitDy=0;entryX=0.082;entryY=0.995;entryDx=0;entryDy=0;entryPerimeter=0;endArrow=none;endFill=0;" edge="1" parent="1" source="VtcHBGdytWpLw2sPs4VE-46" target="VtcHBGdytWpLw2sPs4VE-3">
          <mxGeometry relative="1" as="geometry" />
        </mxCell>
        <mxCell id="VtcHBGdytWpLw2sPs4VE-52" style="edgeStyle=orthogonalEdgeStyle;rounded=0;orthogonalLoop=1;jettySize=auto;html=1;exitX=1;exitY=0.5;exitDx=0;exitDy=0;entryX=0.322;entryY=0.975;entryDx=0;entryDy=0;entryPerimeter=0;endArrow=none;endFill=0;" edge="1" parent="1" source="VtcHBGdytWpLw2sPs4VE-47" target="VtcHBGdytWpLw2sPs4VE-3">
          <mxGeometry relative="1" as="geometry" />
        </mxCell>
      </root>
    </mxGraphModel>
  </diagram>
</mxfile>
